PathFileType	4	(X/Y/Z)	 2.2Hzlow3min.trc
DataRate	CameraRate	NumFrames	NumMarkers	Units	OrigDataRate	OrigDataStartFrame	OrigNumFrames
200	200	8	35	m	200	501	1000
Frame#	Time	C7			LSH			RSH			MAN			RASI			LASI			HIPR			HIPL			RPSI			LPSI			COX			RTHI1			RTHI2			RTHI3			RTHI4			RSHA1			RSHA2			RSHA3			RSHA4			RHEEL			RMET5			RMET1			RTOE			LTHI1			LTHI2			LTHI3			LTHI4			LSHA1			LSHA2			LSHA3			LSHA4			LHEEL			LMET5			LMET1			LTOE			
		X1	Y1	Z1	X2	Y2	Z2	X3	Y3	Z3	X4	Y4	Z4	X5	Y5	Z5	X6	Y6	Z6	X7	Y7	Z7	X8	Y8	Z8	X9	Y9	Z9	X10	Y10	Z10	X11	Y11	Z11	X12	Y12	Z12	X13	Y13	Z13	X14	Y14	Z14	X15	Y15	Z15	X16	Y16	Z16	X17	Y17	Z17	X18	Y18	Z18	X19	Y19	Z19	X20	Y20	Z20	X21	Y21	Z21	X22	Y22	Z22	X23	Y23	Z23	X24	Y24	Z24	X25	Y25	Z25	X26	Y26	Z26	X27	Y27	Z27	X28	Y28	Z28	X29	Y29	Z29	X30	Y30	Z30	X31	Y31	Z31	X32	Y32	Z32	X33	Y33	Z33	X34	Y34	Z34	X35	Y35	Z35	
501	2.5050	-0.000000	0.000000	-0.000000	-0.214032	1.458472	-0.706852	-0.246166	1.433109	-0.366905	-0.165920	1.410224	-0.532502	-0.135124	1.018080	-0.410518	-0.111780	1.012976	-0.631755	-0.195157	1.073617	-0.391994	-0.168814	1.057675	-0.668331	-0.285693	1.048263	-0.483957	-0.278927	1.044029	-0.590585	-0.287090	1.054271	-0.534201	-0.223713	0.814911	-0.358413	-0.205237	0.758262	-0.357195	-0.143147	0.776380	-0.349608	-0.154884	0.836777	-0.350857	-0.230643	0.434145	-0.356504	-0.246026	0.393892	-0.360787	-0.187129	0.379158	-0.366315	-0.176541	0.418317	-0.365902	-0.329714	0.159628	-0.424243	-0.207515	0.062963	-0.372100	-0.174834	0.062999	-0.435048	-0.152582	0.051122	-0.428348	-0.187349	0.802724	-0.701051	-0.161558	0.746991	-0.696011	-0.101577	0.769365	-0.688266	-0.118529	0.827361	-0.692235	-0.215365	0.395668	-0.690792	-0.231411	0.358440	-0.689427	-0.172265	0.340876	-0.677035	-0.163497	0.384056	-0.680876	-0.328137	0.147407	-0.641510	-0.196560	0.063778	-0.681459	-0.168028	0.059707	-0.618413	-0.145757	0.046477	-0.617772	
502	2.5100	-0.000000	0.000000	-0.000000	-0.214001	1.455734	-0.706866	-0.245943	1.430387	-0.366772	-0.165894	1.407463	-0.532506	-0.135533	1.015519	-0.410380	-0.112153	1.010474	-0.631685	-0.195700	1.070850	-0.391923	-0.169228	1.055095	-0.668250	-0.286207	1.045241	-0.483941	-0.279385	1.041074	-0.590529	-0.287586	1.051321	-0.534194	-0.222798	0.812181	-0.358116	-0.204154	0.755578	-0.357077	-0.141982	0.773839	-0.349854	-0.153984	0.834229	-0.351117	-0.229895	0.431823	-0.356669	-0.245487	0.391645	-0.360986	-0.186682	0.376647	-0.366703	-0.175897	0.415743	-0.366272	-0.330728	0.158019	-0.424276	-0.208558	0.060935	-0.373136	-0.176188	0.060987	-0.436242	-0.153902	0.048997	-0.429722	-0.186371	0.800194	-0.701239	-0.160442	0.744531	-0.695791	-0.100644	0.767128	-0.687311	-0.117757	0.825091	-0.691491	-0.214948	0.393483	-0.690694	-0.231196	0.356350	-0.689327	-0.172199	0.338481	-0.676697	-0.163180	0.381602	-0.680581	-0.329337	0.145988	-0.641509	-0.198125	0.061249	-0.680198	-0.169827	0.057576	-0.617074	-0.147641	0.044221	-0.616201	
503	2.5150	-0.000000	0.000000	-0.000000	-0.213968	1.452768	-0.706873	-0.245689	1.427442	-0.366654	-0.165880	1.404434	-0.532512	-0.135951	1.012706	-0.410246	-0.112518	1.007746	-0.631605	-0.196248	1.067842	-0.391847	-0.169642	1.052295	-0.668166	-0.286707	1.041989	-0.483915	-0.279833	1.037902	-0.590470	-0.288012	1.048148	-0.534172	-0.221894	0.809191	-0.357836	-0.203080	0.752627	-0.356959	-0.140839	0.771061	-0.350113	-0.153105	0.831433	-0.351381	-0.229092	0.429291	-0.356798	-0.244915	0.389202	-0.361134	-0.186213	0.373898	-0.367096	-0.175213	0.412939	-0.366642	-0.331776	0.156250	-0.424317	-0.209729	0.058581	-0.374230	-0.177645	0.058670	-0.437476	-0.155347	0.046557	-0.431126	-0.185405	0.797423	-0.701400	-0.159355	0.741842	-0.695559	-0.099751	0.764646	-0.686315	-0.117009	0.822582	-0.690734	-0.214481	0.391039	-0.690641	-0.230938	0.354004	-0.689276	-0.172100	0.335829	-0.676337	-0.162829	0.378891	-0.680278	-0.330536	0.144370	-0.641509	-0.199743	0.058459	-0.678905	-0.171691	0.055160	-0.615700	-0.149594	0.041670	-0.614593	
504	2.5200	-0.000000	0.000000	-0.000000	-0.213936	1.449571	-0.706876	-0.245412	1.424271	-0.366549	-0.165869	1.401158	-0.532519	-0.136377	1.009640	-0.410121	-0.112876	1.004780	-0.631523	-0.196806	1.064591	-0.391764	-0.170058	1.049266	-0.668086	-0.287189	1.038515	-0.483876	-0.280272	1.034518	-0.590401	-0.288474	1.044748	-0.534116	-0.221021	0.805931	-0.357562	-0.202024	0.749405	-0.356819	-0.139753	0.768047	-0.350390	-0.152268	0.828382	-0.351644	-0.228239	0.426555	-0.356889	-0.244306	0.386551	-0.361235	-0.185720	0.370929	-0.367488	-0.174495	0.409908	-0.367037	-0.332841	0.154305	-0.424429	-0.211024	0.055909	-0.375358	-0.179192	0.056050	-0.438724	-0.156898	0.043806	-0.432540	-0.184465	0.794413	-0.701532	-0.158315	0.738916	-0.695319	-0.098909	0.761908	-0.685277	-0.116295	0.819817	-0.689955	-0.213970	0.388328	-0.690631	-0.230640	0.351400	-0.689269	-0.171983	0.332916	-0.675958	-0.162447	0.375916	-0.679965	-0.331714	0.142543	-0.641523	-0.201400	0.055425	-0.677614	-0.173616	0.052488	-0.614296	-0.151612	0.038935	-0.612951	
505	2.5250	-0.000000	0.000000	-0.000000	-0.213908	1.446137	-0.706881	-0.245122	1.420875	-0.366459	-0.165859	1.397631	-0.532525	-0.136809	1.006319	-0.410006	-0.113224	1.001580	-0.631439	-0.197352	1.061097	-0.391677	-0.170474	1.045996	-0.668015	-0.287651	1.034821	-0.483824	-0.280705	1.030919	-0.590321	-0.288849	1.041133	-0.534046	-0.220204	0.802406	-0.357301	-0.201014	0.745921	-0.356678	-0.138736	0.764819	-0.350704	-0.151492	0.825082	-0.351911	-0.227328	0.423605	-0.356940	-0.243655	0.383700	-0.361301	-0.185207	0.367733	-0.367879	-0.173744	0.406645	-0.367461	-0.333900	0.152154	-0.424615	-0.212431	0.052924	-0.376497	-0.180819	0.053167	-0.439982	-0.158539	0.040878	-0.433981	-0.183570	0.791155	-0.701640	-0.157333	0.735744	-0.695075	-0.098136	0.758894	-0.684202	-0.115629	0.816781	-0.689166	-0.213424	0.385355	-0.690654	-0.230310	0.348539	-0.689291	-0.171850	0.329751	-0.675562	-0.162045	0.372683	-0.679650	-0.332875	0.140476	-0.641531	-0.203081	0.052158	-0.676367	-0.175575	0.049647	-0.612881	-0.153639	0.036151	-0.611285	
506	2.5300	-0.000000	0.000000	-0.000000	-0.213885	1.442468	-0.706890	-0.244828	1.417255	-0.366382	-0.165860	1.393839	-0.532528	-0.137229	1.002739	-0.409894	-0.113564	0.998140	-0.631357	-0.197885	1.057371	-0.391586	-0.170893	1.042480	-0.667953	-0.288093	1.030915	-0.483758	-0.281130	1.027110	-0.590223	-0.289086	1.037294	-0.533974	-0.219461	0.798612	-0.357051	-0.200066	0.742179	-0.356535	-0.137805	0.761322	-0.351032	-0.150797	0.821526	-0.352175	-0.226371	0.420448	-0.356952	-0.242971	0.380635	-0.361327	-0.184673	0.364303	-0.368270	-0.172966	0.403144	-0.367876	-0.334982	0.149756	-0.424936	-0.213939	0.049657	-0.377578	-0.182500	0.050127	-0.441288	-0.160197	0.037933	-0.435465	-0.182727	0.787646	-0.701724	-0.156418	0.732318	-0.694834	-0.097431	0.755616	-0.683150	-0.115022	0.813469	-0.688367	-0.212851	0.382142	-0.690708	-0.229954	0.345430	-0.689337	-0.171703	0.326347	-0.675159	-0.161631	0.369200	-0.679331	-0.334061	0.138121	-0.641524	-0.204775	0.048738	-0.675301	-0.177467	0.046783	-0.611512	-0.155542	0.033482	-0.609653	
507	2.5350	-0.000000	0.000000	-0.000000	-0.213874	1.438566	-0.706905	-0.244538	1.413414	-0.366317	-0.165874	1.389792	-0.532524	-0.137605	0.998915	-0.409782	-0.113894	0.994465	-0.631274	-0.198412	1.053410	-0.391481	-0.171316	1.038709	-0.667900	-0.288519	1.026807	-0.483672	-0.281545	1.023088	-0.590124	-0.289210	1.033255	-0.533929	-0.218809	0.794543	-0.356809	-0.199193	0.738181	-0.356391	-0.136986	0.757594	-0.351394	-0.150202	0.817717	-0.352429	-0.225377	0.417055	-0.356931	-0.242265	0.377362	-0.361316	-0.184126	0.360641	-0.368660	-0.172159	0.399418	-0.368239	-0.336140	0.147081	-0.425353	-0.215540	0.046240	-0.378441	-0.184134	0.047095	-0.442606	-0.161745	0.035164	-0.436990	-0.181953	0.783883	-0.701779	-0.155581	0.728630	-0.694609	-0.096804	0.752063	-0.682155	-0.114491	0.809871	-0.687588	-0.212265	0.378689	-0.690789	-0.229584	0.342068	-0.689409	-0.171544	0.322706	-0.674769	-0.161215	0.365473	-0.679022	-0.335356	0.135419	-0.641490	-0.206424	0.045334	-0.674573	-0.179176	0.044090	-0.610302	-0.157206	0.031136	-0.608137	
508	2.5400	-0.000000	0.000000	-0.000000	-0.213875	1.434435	-0.706924	-0.244262	1.409357	-0.366264	-0.165908	1.385527	-0.532511	-0.137938	0.994859	-0.409674	-0.114220	0.990554	-0.631192	-0.198926	1.049220	-0.391358	-0.171739	1.034681	-0.667863	-0.288932	1.022495	-0.483568	-0.281954	1.018856	-0.590020	-0.289302	1.028985	-0.533854	-0.218258	0.790211	-0.356581	-0.198401	0.733932	-0.356257	-0.136282	0.753633	-0.351759	-0.149717	0.813656	-0.352664	-0.224366	0.413431	-0.356877	-0.241546	0.373865	-0.361285	-0.183581	0.356754	-0.369040	-0.171350	0.395446	-0.368609	-0.337458	0.144107	-0.425862	-0.217144	0.042866	-0.378950	-0.185587	0.044288	-0.443826	-0.163058	0.032772	-0.438479	-0.181272	0.779869	-0.701809	-0.154827	0.724678	-0.694412	-0.096248	0.748237	-0.681269	-0.114038	0.805996	-0.686851	-0.211691	0.375001	-0.690899	-0.229218	0.338472	-0.689509	-0.171395	0.318827	-0.674402	-0.160809	0.361504	-0.678724	-0.336860	0.132354	-0.641412	-0.207945	0.042160	-0.674267	-0.180634	0.041779	-0.609348	-0.158552	0.029331	-0.606824	
